<?xml version="1.0" encoding="utf-8" standalone="no"?>
<!DOCTYPE svg PUBLIC "-//W3C//DTD SVG 1.1//EN"
  "http://www.w3.org/Graphics/SVG/1.1/DTD/svg11.dtd">
<svg xmlns:xlink="http://www.w3.org/1999/xlink" width="515.75pt" height="40pt" viewBox="0 0 515.75 40" xmlns="http://www.w3.org/2000/svg" version="1.1">
 <metadata>
  <rdf:RDF xmlns:dc="http://purl.org/dc/elements/1.1/" xmlns:cc="http://creativecommons.org/ns#" xmlns:rdf="http://www.w3.org/1999/02/22-rdf-syntax-ns#">
   <cc:Work>
    <dc:type rdf:resource="http://purl.org/dc/dcmitype/StillImage"/>
    <dc:date>2023-05-15T18:28:03.459449</dc:date>
    <dc:format>image/svg+xml</dc:format>
    <dc:creator>
     <cc:Agent>
      <dc:title>Matplotlib v3.6.0, https://matplotlib.org/</dc:title>
     </cc:Agent>
    </dc:creator>
   </cc:Work>
  </rdf:RDF>
 </metadata>
 <defs>
  <style type="text/css">*{stroke-linejoin: round; stroke-linecap: butt}</style>
 </defs>
 <g id="figure_1">
  <g id="patch_1">
   <path d="M 0 40 
L 515.75 40 
L 515.75 0 
L 0 0 
L 0 40 
z
" style="fill: none"/>
  </g>
  <g id="text_1">
   <!-- $\frac{0.001741 z^2 - 0.0007853 z + 8.212 \times 10^{-9}}{z^3 - 2.902 z^2 + 2.817 z - 0.9139}\quad dt = 0.005$ -->
   <g transform="translate(0 27) scale(0.25 -0.25)">
    <defs>
     <path id="DejaVuSans-30" d="M 2034 4250 
Q 1547 4250 1301 3770 
Q 1056 3291 1056 2328 
Q 1056 1369 1301 889 
Q 1547 409 2034 409 
Q 2525 409 2770 889 
Q 3016 1369 3016 2328 
Q 3016 3291 2770 3770 
Q 2525 4250 2034 4250 
z
M 2034 4750 
Q 2819 4750 3233 4129 
Q 3647 3509 3647 2328 
Q 3647 1150 3233 529 
Q 2819 -91 2034 -91 
Q 1250 -91 836 529 
Q 422 1150 422 2328 
Q 422 3509 836 4129 
Q 1250 4750 2034 4750 
z
" transform="scale(0.015625)"/>
     <path id="DejaVuSans-2e" d="M 684 794 
L 1344 794 
L 1344 0 
L 684 0 
L 684 794 
z
" transform="scale(0.015625)"/>
     <path id="DejaVuSans-31" d="M 794 531 
L 1825 531 
L 1825 4091 
L 703 3866 
L 703 4441 
L 1819 4666 
L 2450 4666 
L 2450 531 
L 3481 531 
L 3481 0 
L 794 0 
L 794 531 
z
" transform="scale(0.015625)"/>
     <path id="DejaVuSans-37" d="M 525 4666 
L 3525 4666 
L 3525 4397 
L 1831 0 
L 1172 0 
L 2766 4134 
L 525 4134 
L 525 4666 
z
" transform="scale(0.015625)"/>
     <path id="DejaVuSans-34" d="M 2419 4116 
L 825 1625 
L 2419 1625 
L 2419 4116 
z
M 2253 4666 
L 3047 4666 
L 3047 1625 
L 3713 1625 
L 3713 1100 
L 3047 1100 
L 3047 0 
L 2419 0 
L 2419 1100 
L 313 1100 
L 313 1709 
L 2253 4666 
z
" transform="scale(0.015625)"/>
     <path id="DejaVuSans-Oblique-7a" d="M 744 3500 
L 3475 3500 
L 3372 2975 
L 738 459 
L 2913 459 
L 2822 0 
L -19 0 
L 84 525 
L 2719 3041 
L 653 3041 
L 744 3500 
z
" transform="scale(0.015625)"/>
     <path id="DejaVuSans-32" d="M 1228 531 
L 3431 531 
L 3431 0 
L 469 0 
L 469 531 
Q 828 903 1448 1529 
Q 2069 2156 2228 2338 
Q 2531 2678 2651 2914 
Q 2772 3150 2772 3378 
Q 2772 3750 2511 3984 
Q 2250 4219 1831 4219 
Q 1534 4219 1204 4116 
Q 875 4013 500 3803 
L 500 4441 
Q 881 4594 1212 4672 
Q 1544 4750 1819 4750 
Q 2544 4750 2975 4387 
Q 3406 4025 3406 3419 
Q 3406 3131 3298 2873 
Q 3191 2616 2906 2266 
Q 2828 2175 2409 1742 
Q 1991 1309 1228 531 
z
" transform="scale(0.015625)"/>
     <path id="DejaVuSans-2212" d="M 678 2272 
L 4684 2272 
L 4684 1741 
L 678 1741 
L 678 2272 
z
" transform="scale(0.015625)"/>
     <path id="DejaVuSans-38" d="M 2034 2216 
Q 1584 2216 1326 1975 
Q 1069 1734 1069 1313 
Q 1069 891 1326 650 
Q 1584 409 2034 409 
Q 2484 409 2743 651 
Q 3003 894 3003 1313 
Q 3003 1734 2745 1975 
Q 2488 2216 2034 2216 
z
M 1403 2484 
Q 997 2584 770 2862 
Q 544 3141 544 3541 
Q 544 4100 942 4425 
Q 1341 4750 2034 4750 
Q 2731 4750 3128 4425 
Q 3525 4100 3525 3541 
Q 3525 3141 3298 2862 
Q 3072 2584 2669 2484 
Q 3125 2378 3379 2068 
Q 3634 1759 3634 1313 
Q 3634 634 3220 271 
Q 2806 -91 2034 -91 
Q 1263 -91 848 271 
Q 434 634 434 1313 
Q 434 1759 690 2068 
Q 947 2378 1403 2484 
z
M 1172 3481 
Q 1172 3119 1398 2916 
Q 1625 2713 2034 2713 
Q 2441 2713 2670 2916 
Q 2900 3119 2900 3481 
Q 2900 3844 2670 4047 
Q 2441 4250 2034 4250 
Q 1625 4250 1398 4047 
Q 1172 3844 1172 3481 
z
" transform="scale(0.015625)"/>
     <path id="DejaVuSans-35" d="M 691 4666 
L 3169 4666 
L 3169 4134 
L 1269 4134 
L 1269 2991 
Q 1406 3038 1543 3061 
Q 1681 3084 1819 3084 
Q 2600 3084 3056 2656 
Q 3513 2228 3513 1497 
Q 3513 744 3044 326 
Q 2575 -91 1722 -91 
Q 1428 -91 1123 -41 
Q 819 9 494 109 
L 494 744 
Q 775 591 1075 516 
Q 1375 441 1709 441 
Q 2250 441 2565 725 
Q 2881 1009 2881 1497 
Q 2881 1984 2565 2268 
Q 2250 2553 1709 2553 
Q 1456 2553 1204 2497 
Q 953 2441 691 2322 
L 691 4666 
z
" transform="scale(0.015625)"/>
     <path id="DejaVuSans-33" d="M 2597 2516 
Q 3050 2419 3304 2112 
Q 3559 1806 3559 1356 
Q 3559 666 3084 287 
Q 2609 -91 1734 -91 
Q 1441 -91 1130 -33 
Q 819 25 488 141 
L 488 750 
Q 750 597 1062 519 
Q 1375 441 1716 441 
Q 2309 441 2620 675 
Q 2931 909 2931 1356 
Q 2931 1769 2642 2001 
Q 2353 2234 1838 2234 
L 1294 2234 
L 1294 2753 
L 1863 2753 
Q 2328 2753 2575 2939 
Q 2822 3125 2822 3475 
Q 2822 3834 2567 4026 
Q 2313 4219 1838 4219 
Q 1578 4219 1281 4162 
Q 984 4106 628 3988 
L 628 4550 
Q 988 4650 1302 4700 
Q 1616 4750 1894 4750 
Q 2613 4750 3031 4423 
Q 3450 4097 3450 3541 
Q 3450 3153 3228 2886 
Q 3006 2619 2597 2516 
z
" transform="scale(0.015625)"/>
     <path id="DejaVuSans-2b" d="M 2944 4013 
L 2944 2272 
L 4684 2272 
L 4684 1741 
L 2944 1741 
L 2944 0 
L 2419 0 
L 2419 1741 
L 678 1741 
L 678 2272 
L 2419 2272 
L 2419 4013 
L 2944 4013 
z
" transform="scale(0.015625)"/>
     <path id="DejaVuSans-d7" d="M 4488 3438 
L 3059 2003 
L 4488 575 
L 4116 197 
L 2681 1631 
L 1247 197 
L 878 575 
L 2303 2003 
L 878 3438 
L 1247 3816 
L 2681 2381 
L 4116 3816 
L 4488 3438 
z
" transform="scale(0.015625)"/>
     <path id="DejaVuSans-39" d="M 703 97 
L 703 672 
Q 941 559 1184 500 
Q 1428 441 1663 441 
Q 2288 441 2617 861 
Q 2947 1281 2994 2138 
Q 2813 1869 2534 1725 
Q 2256 1581 1919 1581 
Q 1219 1581 811 2004 
Q 403 2428 403 3163 
Q 403 3881 828 4315 
Q 1253 4750 1959 4750 
Q 2769 4750 3195 4129 
Q 3622 3509 3622 2328 
Q 3622 1225 3098 567 
Q 2575 -91 1691 -91 
Q 1453 -91 1209 -44 
Q 966 3 703 97 
z
M 1959 2075 
Q 2384 2075 2632 2365 
Q 2881 2656 2881 3163 
Q 2881 3666 2632 3958 
Q 2384 4250 1959 4250 
Q 1534 4250 1286 3958 
Q 1038 3666 1038 3163 
Q 1038 2656 1286 2365 
Q 1534 2075 1959 2075 
z
" transform="scale(0.015625)"/>
     <path id="DejaVuSans-Oblique-64" d="M 2675 525 
Q 2444 222 2128 65 
Q 1813 -91 1428 -91 
Q 903 -91 598 267 
Q 294 625 294 1247 
Q 294 1766 478 2236 
Q 663 2706 1013 3078 
Q 1244 3325 1534 3454 
Q 1825 3584 2144 3584 
Q 2481 3584 2739 3421 
Q 2997 3259 3138 2956 
L 3513 4863 
L 4091 4863 
L 3144 0 
L 2566 0 
L 2675 525 
z
M 891 1350 
Q 891 897 1095 644 
Q 1300 391 1663 391 
Q 1931 391 2161 520 
Q 2391 650 2566 903 
Q 2750 1166 2856 1509 
Q 2963 1853 2963 2188 
Q 2963 2622 2758 2865 
Q 2553 3109 2194 3109 
Q 1922 3109 1687 2981 
Q 1453 2853 1288 2613 
Q 1106 2353 998 2009 
Q 891 1666 891 1350 
z
" transform="scale(0.015625)"/>
     <path id="DejaVuSans-Oblique-74" d="M 2706 3500 
L 2619 3053 
L 1472 3053 
L 1100 1153 
Q 1081 1047 1072 975 
Q 1063 903 1063 863 
Q 1063 663 1183 572 
Q 1303 481 1569 481 
L 2150 481 
L 2053 0 
L 1503 0 
Q 991 0 739 200 
Q 488 400 488 806 
Q 488 878 497 964 
Q 506 1050 525 1153 
L 897 3053 
L 409 3053 
L 500 3500 
L 978 3500 
L 1172 4494 
L 1747 4494 
L 1556 3500 
L 2706 3500 
z
" transform="scale(0.015625)"/>
     <path id="DejaVuSans-3d" d="M 678 2906 
L 4684 2906 
L 4684 2381 
L 678 2381 
L 678 2906 
z
M 678 1631 
L 4684 1631 
L 4684 1100 
L 678 1100 
L 678 1631 
z
" transform="scale(0.015625)"/>
    </defs>
    <use xlink:href="#DejaVuSans-30" transform="translate(0 44.835938) scale(0.7)"/>
    <use xlink:href="#DejaVuSans-2e" transform="translate(44.536133 44.835938) scale(0.7)"/>
    <use xlink:href="#DejaVuSans-30" transform="translate(66.787109 44.835938) scale(0.7)"/>
    <use xlink:href="#DejaVuSans-30" transform="translate(111.323242 44.835938) scale(0.7)"/>
    <use xlink:href="#DejaVuSans-31" transform="translate(155.859375 44.835938) scale(0.7)"/>
    <use xlink:href="#DejaVuSans-37" transform="translate(200.395508 44.835938) scale(0.7)"/>
    <use xlink:href="#DejaVuSans-34" transform="translate(244.931641 44.835938) scale(0.7)"/>
    <use xlink:href="#DejaVuSans-31" transform="translate(289.467773 44.835938) scale(0.7)"/>
    <use xlink:href="#DejaVuSans-Oblique-7a" transform="translate(334.003906 44.835938) scale(0.7)"/>
    <use xlink:href="#DejaVuSans-32" transform="translate(373.873372 71.632812) scale(0.49)"/>
    <use xlink:href="#DejaVuSans-2212" transform="translate(420.600423 44.835938) scale(0.7)"/>
    <use xlink:href="#DejaVuSans-30" transform="translate(492.890462 44.835938) scale(0.7)"/>
    <use xlink:href="#DejaVuSans-2e" transform="translate(537.426595 44.835938) scale(0.7)"/>
    <use xlink:href="#DejaVuSans-30" transform="translate(559.677572 44.835938) scale(0.7)"/>
    <use xlink:href="#DejaVuSans-30" transform="translate(604.213704 44.835938) scale(0.7)"/>
    <use xlink:href="#DejaVuSans-30" transform="translate(648.749837 44.835938) scale(0.7)"/>
    <use xlink:href="#DejaVuSans-37" transform="translate(693.28597 44.835938) scale(0.7)"/>
    <use xlink:href="#DejaVuSans-38" transform="translate(737.822103 44.835938) scale(0.7)"/>
    <use xlink:href="#DejaVuSans-35" transform="translate(782.358236 44.835938) scale(0.7)"/>
    <use xlink:href="#DejaVuSans-33" transform="translate(826.894368 44.835938) scale(0.7)"/>
    <use xlink:href="#DejaVuSans-Oblique-7a" transform="translate(871.430501 44.835938) scale(0.7)"/>
    <use xlink:href="#DejaVuSans-2b" transform="translate(921.811361 44.835938) scale(0.7)"/>
    <use xlink:href="#DejaVuSans-38" transform="translate(994.1014 44.835938) scale(0.7)"/>
    <use xlink:href="#DejaVuSans-2e" transform="translate(1038.637533 44.835938) scale(0.7)"/>
    <use xlink:href="#DejaVuSans-32" transform="translate(1057.038509 44.835938) scale(0.7)"/>
    <use xlink:href="#DejaVuSans-31" transform="translate(1101.574642 44.835938) scale(0.7)"/>
    <use xlink:href="#DejaVuSans-32" transform="translate(1146.110775 44.835938) scale(0.7)"/>
    <use xlink:href="#DejaVuSans-d7" transform="translate(1204.284603 44.835938) scale(0.7)"/>
    <use xlink:href="#DejaVuSans-31" transform="translate(1276.574642 44.835938) scale(0.7)"/>
    <use xlink:href="#DejaVuSans-30" transform="translate(1321.110775 44.835938) scale(0.7)"/>
    <use xlink:href="#DejaVuSans-2212" transform="translate(1366.316829 71.632812) scale(0.49)"/>
    <use xlink:href="#DejaVuSans-39" transform="translate(1407.37347 71.632812) scale(0.49)"/>
    <use xlink:href="#DejaVuSans-Oblique-7a" transform="translate(178 -50.573437) scale(0.7)"/>
    <use xlink:href="#DejaVuSans-33" transform="translate(217.869466 -23.776562) scale(0.49)"/>
    <use xlink:href="#DejaVuSans-2212" transform="translate(264.596517 -50.573437) scale(0.7)"/>
    <use xlink:href="#DejaVuSans-32" transform="translate(336.886556 -50.573437) scale(0.7)"/>
    <use xlink:href="#DejaVuSans-2e" transform="translate(381.422689 -50.573437) scale(0.7)"/>
    <use xlink:href="#DejaVuSans-39" transform="translate(403.673665 -50.573437) scale(0.7)"/>
    <use xlink:href="#DejaVuSans-30" transform="translate(448.209798 -50.573437) scale(0.7)"/>
    <use xlink:href="#DejaVuSans-32" transform="translate(492.745931 -50.573437) scale(0.7)"/>
    <use xlink:href="#DejaVuSans-Oblique-7a" transform="translate(537.282064 -50.573437) scale(0.7)"/>
    <use xlink:href="#DejaVuSans-32" transform="translate(577.15153 -23.776562) scale(0.49)"/>
    <use xlink:href="#DejaVuSans-2b" transform="translate(623.878581 -50.573437) scale(0.7)"/>
    <use xlink:href="#DejaVuSans-32" transform="translate(696.16862 -50.573437) scale(0.7)"/>
    <use xlink:href="#DejaVuSans-2e" transform="translate(740.704753 -50.573437) scale(0.7)"/>
    <use xlink:href="#DejaVuSans-38" transform="translate(761.118229 -50.573437) scale(0.7)"/>
    <use xlink:href="#DejaVuSans-31" transform="translate(805.654362 -50.573437) scale(0.7)"/>
    <use xlink:href="#DejaVuSans-37" transform="translate(850.190495 -50.573437) scale(0.7)"/>
    <use xlink:href="#DejaVuSans-Oblique-7a" transform="translate(894.726628 -50.573437) scale(0.7)"/>
    <use xlink:href="#DejaVuSans-2212" transform="translate(945.107487 -50.573437) scale(0.7)"/>
    <use xlink:href="#DejaVuSans-30" transform="translate(1017.397526 -50.573437) scale(0.7)"/>
    <use xlink:href="#DejaVuSans-2e" transform="translate(1061.933659 -50.573437) scale(0.7)"/>
    <use xlink:href="#DejaVuSans-39" transform="translate(1084.184635 -50.573437) scale(0.7)"/>
    <use xlink:href="#DejaVuSans-31" transform="translate(1128.720768 -50.573437) scale(0.7)"/>
    <use xlink:href="#DejaVuSans-33" transform="translate(1173.256901 -50.573437) scale(0.7)"/>
    <use xlink:href="#DejaVuSans-39" transform="translate(1217.793034 -50.573437) scale(0.7)"/>
    <use xlink:href="#DejaVuSans-Oblique-64" transform="translate(1550.374935 0.04375)"/>
    <use xlink:href="#DejaVuSans-Oblique-74" transform="translate(1613.851497 0.04375)"/>
    <use xlink:href="#DejaVuSans-3d" transform="translate(1672.542904 0.04375)"/>
    <use xlink:href="#DejaVuSans-30" transform="translate(1775.814388 0.04375)"/>
    <use xlink:href="#DejaVuSans-2e" transform="translate(1839.437435 0.04375)"/>
    <use xlink:href="#DejaVuSans-30" transform="translate(1871.224544 0.04375)"/>
    <use xlink:href="#DejaVuSans-30" transform="translate(1934.847591 0.04375)"/>
    <use xlink:href="#DejaVuSans-35" transform="translate(1998.470638 0.04375)"/>
    <path d="M 0 18.840625 
L 0 25.090625 
L 1440.462826 25.090625 
L 1440.462826 18.840625 
L 0 18.840625 
z
"/>
   </g>
  </g>
 </g>
</svg>
