<?xml version="1.0" standalone="no"?>
<!DOCTYPE svg PUBLIC "-//W3C//DTD SVG 20010904//EN"
 "http://www.w3.org/TR/2001/REC-SVG-20010904/DTD/svg10.dtd">
<svg version="1.0" xmlns="http://www.w3.org/2000/svg"
 width="391.000000pt" height="401.000000pt" viewBox="0 0 391.000000 401.000000"
 preserveAspectRatio="xMidYMid meet">

<g transform="translate(0.000000,401.000000) scale(0.100000,-0.100000)"
fill="#000000" stroke="none">
<path d="M1285 3704 c-715 -324 -712 -322 -702 -398 7 -52 53 -96 99 -96 20 0
257 102 652 281 l621 282 40 -16 c64 -24 1519 -687 1528 -696 8 -8 -1536 -691
-1563 -691 -9 0 -420 178 -914 395 -495 217 -912 395 -927 395 -41 0 -73 -18
-92 -50 -16 -26 -17 -118 -17 -1100 0 -940 2 -1075 15 -1100 10 -19 36 -40 73
-59 185 -92 1844 -851 1862 -851 18 0 1677 759 1862 851 37 19 63 40 73 59 13
26 15 154 13 1110 l-3 1080 -25 25 c-30 30 -1887 875 -1922 875 -12 -1 -315
-133 -673 -296z m-201 -1189 c469 -206 864 -375 876 -375 12 0 407 169 876
375 470 206 856 375 859 375 3 0 4 -419 3 -932 l-3 -932 -805 -372 c-443 -205
-808 -373 -812 -373 -4 -1 -9 332 -10 740 l-3 741 -33 29 c-45 40 -99 40 -144
0 l-33 -29 -3 -741 c-1 -408 -6 -741 -10 -740 -4 0 -369 168 -812 373 l-805
372 -3 932 c-1 513 0 932 3 932 3 0 389 -169 859 -375z"/>
</g>
</svg>
